# 3ds Max Wavefront OBJ Exporter v0.97b - (c)2007 guruware
# File Created: 26.05.2019 22:07:59

mtllib column.mtl

#
# object Cylinder_001_Cylinder_002
#

v  0.0183 4.5761 -1.0335
v  0.6061 4.5761 -0.8425
v  0.6061 -4.5761 -0.8425
v  0.0183 -4.5761 -1.0335
v  0.9694 4.5761 -0.3425
v  0.9694 -4.5761 -0.3425
v  0.9694 4.5761 0.2755
v  0.9694 -4.5761 0.2755
v  0.6061 4.5761 0.7755
v  0.6061 -4.5761 0.7755
v  0.0183 4.5761 0.9665
v  0.0183 -4.5761 0.9665
v  -0.5695 4.5761 0.7755
v  -0.5695 -4.5761 0.7755
v  -0.9327 4.5761 0.2755
v  -0.9327 -4.5761 0.2755
v  -0.9327 4.5761 -0.3425
v  -0.9327 -4.5761 -0.3425
v  -0.5695 4.5761 -0.8425
v  -0.5695 -4.5761 -0.8425
v  -0.9221 5.5761 -1.3279
v  0.0183 5.5761 -1.6335
v  0.0183 -5.5761 1.5665
v  0.9588 -5.5761 1.2609
v  0.9588 -5.5761 -1.3279
v  1.5400 -5.5761 -0.5279
v  1.5400 -5.5761 0.4609
v  -0.9221 -5.5761 1.2609
v  -1.5034 -5.5761 0.4609
v  -1.5034 -5.5761 -0.5279
v  -0.9221 -5.5761 -1.3279
v  0.0183 -5.5761 -1.6335
v  -1.5034 5.5761 -0.5279
v  -1.5034 5.5761 0.4609
v  -0.9221 5.5761 1.2609
v  0.0183 5.5761 1.5665
v  0.9588 5.5761 1.2609
v  1.5400 5.5761 0.4609
v  1.5400 5.5761 -0.5279
v  0.9588 5.5761 -1.3279
# 40 vertices

vn 0.3090 0.0000 -0.9511
vn 0.8090 0.0000 -0.5878
vn 1.0000 0.0000 0.0000
vn 0.8090 0.0000 0.5878
vn 0.3090 0.0000 0.9511
vn -0.3090 0.0000 0.9511
vn -0.8090 0.0000 0.5878
vn -1.0000 0.0000 -0.0000
vn -0.3090 0.0000 -0.9511
vn -0.8090 0.0000 -0.5878
vn -0.5040 -0.5145 -0.6937
vn -0.5303 0.4313 -0.7299
vn 0.0000 0.4313 -0.9022
vn 0.0000 -0.5145 -0.8575
vn -0.0000 0.5145 0.8575
vn -0.0000 -0.4313 0.9022
vn 0.5303 -0.4313 0.7299
vn 0.5040 0.5145 0.6937
vn 0.5303 -0.4313 -0.7299
vn 0.8580 -0.4313 -0.2788
vn 0.8580 -0.4313 0.2788
vn -0.5303 -0.4313 0.7299
vn -0.8580 -0.4313 0.2788
vn -0.8580 -0.4313 -0.2788
vn -0.5303 -0.4313 -0.7299
vn 0.0000 -0.4313 -0.9022
vn -0.8155 0.5145 0.2650
vn -0.5040 0.5145 0.6937
vn -0.5040 0.5145 -0.6937
vn -0.8155 0.5145 -0.2650
vn 0.8155 0.5145 -0.2650
vn 0.5040 0.5145 -0.6937
vn 0.8155 0.5145 0.2650
vn 0.0000 0.5145 -0.8575
vn -0.8580 0.4313 -0.2788
vn -0.8580 0.4313 0.2788
vn -0.5303 0.4313 0.7299
vn -0.0000 0.4313 0.9022
vn 0.5303 0.4313 0.7299
vn 0.8580 0.4313 0.2788
vn 0.8580 0.4313 -0.2788
vn 0.5303 0.4313 -0.7299
vn 0.8155 -0.5145 -0.2650
vn 0.8155 -0.5145 0.2650
vn 0.5040 -0.5145 0.6937
vn -0.0000 -0.5145 0.8575
vn -0.5040 -0.5145 0.6937
vn -0.8155 -0.5145 0.2650
vn -0.8155 -0.5145 -0.2650
vn 0.5040 -0.5145 -0.6937
# 50 vertex normals

vt 0.0000 0.0000 0.0000
# 1 texture coords

o Cylinder_001_Cylinder_002
g Cylinder_001_Cylinder_002
usemtl Column_Made_By_Tyro_Smith_Material_001
s off
f 1/1/1 2/1/1 3/1/1 
f 3/1/1 4/1/1 1/1/1 
f 2/1/2 5/1/2 6/1/2 
f 6/1/2 3/1/2 2/1/2 
f 5/1/3 7/1/3 8/1/3 
f 8/1/3 6/1/3 5/1/3 
f 7/1/4 9/1/4 10/1/4 
f 10/1/4 8/1/4 7/1/4 
f 9/1/5 11/1/5 12/1/5 
f 12/1/5 10/1/5 9/1/5 
f 11/1/6 13/1/6 14/1/6 
f 14/1/6 12/1/6 11/1/6 
f 13/1/7 15/1/7 16/1/7 
f 16/1/7 14/1/7 13/1/7 
f 15/1/8 17/1/8 18/1/8 
f 18/1/8 16/1/8 15/1/8 
f 19/1/9 1/1/9 4/1/9 
f 4/1/9 20/1/9 19/1/9 
f 17/1/10 19/1/10 20/1/10 
f 20/1/10 18/1/10 17/1/10 
s 1
f 19/1/11 21/1/12 22/1/13 
f 22/1/13 1/1/14 19/1/11 
f 12/1/15 23/1/16 24/1/17 
f 24/1/17 10/1/18 12/1/15 
f 25/1/19 26/1/20 27/1/21 
f 27/1/21 24/1/17 23/1/16 
f 23/1/16 28/1/22 29/1/23 
f 29/1/23 30/1/24 31/1/25 
f 23/1/16 29/1/23 31/1/25 
f 27/1/21 23/1/16 31/1/25 
f 25/1/19 27/1/21 31/1/25 
f 32/1/26 25/1/19 31/1/25 
f 16/1/27 29/1/23 28/1/22 
f 28/1/22 14/1/28 16/1/27 
f 20/1/29 31/1/25 30/1/24 
f 30/1/24 18/1/30 20/1/29 
f 6/1/31 26/1/20 25/1/19 
f 25/1/19 3/1/32 6/1/31 
f 10/1/18 24/1/17 27/1/21 
f 27/1/21 8/1/33 10/1/18 
f 3/1/32 25/1/19 32/1/26 
f 32/1/26 4/1/34 3/1/32 
f 14/1/28 28/1/22 23/1/16 
f 23/1/16 12/1/15 14/1/28 
f 18/1/30 30/1/24 29/1/23 
f 29/1/23 16/1/27 18/1/30 
f 4/1/34 32/1/26 31/1/25 
f 31/1/25 20/1/29 4/1/34 
f 8/1/33 27/1/21 26/1/20 
f 26/1/20 6/1/31 8/1/33 
f 22/1/13 21/1/12 33/1/35 
f 33/1/35 34/1/36 35/1/37 
f 35/1/37 36/1/38 37/1/39 
f 37/1/39 38/1/40 39/1/41 
f 35/1/37 37/1/39 39/1/41 
f 33/1/35 35/1/37 39/1/41 
f 22/1/13 33/1/35 39/1/41 
f 40/1/42 22/1/13 39/1/41 
f 5/1/43 39/1/41 38/1/40 
f 38/1/40 7/1/44 5/1/43 
f 9/1/45 37/1/39 36/1/38 
f 36/1/38 11/1/46 9/1/45 
f 13/1/47 35/1/37 34/1/36 
f 34/1/36 15/1/48 13/1/47 
f 17/1/49 33/1/35 21/1/12 
f 21/1/12 19/1/11 17/1/49 
f 2/1/50 40/1/42 39/1/41 
f 39/1/41 5/1/43 2/1/50 
f 7/1/44 38/1/40 37/1/39 
f 37/1/39 9/1/45 7/1/44 
f 1/1/14 22/1/13 40/1/42 
f 40/1/42 2/1/50 1/1/14 
f 11/1/46 36/1/38 35/1/37 
f 35/1/37 13/1/47 11/1/46 
f 15/1/48 34/1/36 33/1/35 
f 33/1/35 17/1/49 15/1/48 
# 76 faces

