# 3ds Max Wavefront OBJ Exporter v0.97b - (c)2007 guruware
# File Created: 29.05.2019 15:51:04

mtllib hedra1.mtl

#
# object Hedra001
#

v  0.0129 1.2002 -0.0086
v  0.8616 0.0000 0.8401
v  0.8616 0.0000 -0.8572
v  0.0129 -1.2002 -0.0086
v  -0.8357 0.0000 -0.8572
v  -0.8357 0.0000 0.8401
# 6 vertices

vn 0.8165 0.5774 -0.0000
vn 0.0000 -0.5774 -0.8165
vn -0.8165 0.5774 -0.0000
vn 0.0000 -0.5774 0.8165
vn -0.0000 0.5774 -0.8165
vn -0.0000 0.5774 0.8165
vn 0.8165 -0.5774 -0.0000
vn -0.8165 -0.5774 0.0000
# 8 vertex normals

vt 0.0000 0.5000 0.0000
vt -0.5000 0.0000 0.5000
vt 0.5000 0.0000 0.5000
vt 0.0000 0.5000 0.5000
vt -0.5000 0.0000 0.0000
vt 0.0000 -0.5000 0.5000
vt 0.5000 0.0000 -0.5000
vt -0.5000 0.0000 -0.5000
vt 0.0000 -0.5000 -0.5000
vt 0.0000 0.5000 -0.5000
vt 0.5000 0.0000 0.0000
vt 0.0000 -0.5000 0.0000
# 12 texture coords

o Hedra001
g Hedra001
usemtl wire_027177148
s off
f 1/1/1 2/2/1 3/3/1 
f 3/4/2 4/5/2 5/6/2 
f 5/7/3 6/8/3 1/1/3 
f 6/9/4 4/5/4 2/10/4 
f 3/4/5 5/6/5 1/11/5 
f 6/9/6 2/10/6 1/11/6 
f 2/2/7 4/12/7 3/3/7 
f 6/8/8 5/7/8 4/12/8 
# 8 faces

