# 3ds Max Wavefront OBJ Exporter v0.97b - (c)2007 guruware
# File Created: 25.05.2019 18:32:52

mtllib prism5.mtl

#
# object Gengon001
#

v  0.0085 1.6293 0.0054
v  0.8159 1.6293 0.0054
v  0.2580 1.6293 -0.7624
v  -0.6447 1.6293 -0.4691
v  -0.6447 1.6293 0.4800
v  0.2580 1.6293 0.7733
v  0.8159 0.0000 0.0054
v  0.2580 0.0000 -0.7624
v  -0.6447 0.0000 -0.4691
v  -0.6447 0.0000 0.4800
v  0.2580 0.0000 0.7733
v  0.0085 0.0000 0.0054
# 12 vertices

vn 0.0000 1.0000 -0.0000
vn 0.8090 0.0000 -0.5878
vn -0.3090 0.0000 -0.9511
vn -1.0000 0.0000 0.0000
vn -0.3090 0.0000 0.9511
vn 0.8090 0.0000 0.5878
vn 0.0000 -1.0000 -0.0000
# 7 vertex normals

vt 0.5000 0.5000 0.0000
vt 1.0000 0.5000 0.0000
vt 0.6545 0.9755 0.0000
vt 0.0955 0.7939 0.0000
vt 0.0955 0.2061 0.0000
vt 0.6545 0.0245 0.0000
vt 0.0000 1.0000 0.0000
vt 0.0000 0.0000 0.0000
vt 0.2000 0.0000 0.0000
vt 0.2000 1.0000 0.0000
vt 0.4000 0.0000 0.0000
vt 0.4000 1.0000 0.0000
vt 0.6000 0.0000 0.0000
vt 0.6000 1.0000 0.0000
vt 0.8000 0.0000 0.0000
vt 0.8000 1.0000 0.0000
vt 1.0000 0.0000 0.0000
vt 1.0000 1.0000 0.0000
# 18 texture coords

o Gengon001
g Gengon001
usemtl wire_008110135
s off
f 1/1/1 2/2/1 3/3/1 
f 1/1/1 3/3/1 4/4/1 
f 1/1/1 4/4/1 5/5/1 
f 1/1/1 5/5/1 6/6/1 
f 1/1/1 6/6/1 2/2/1 
f 2/7/2 7/8/2 8/9/2 
f 2/7/2 8/9/2 3/10/2 
f 3/10/3 8/9/3 9/11/3 
f 3/10/3 9/11/3 4/12/3 
f 4/12/4 9/11/4 10/13/4 
f 4/12/4 10/13/4 5/14/4 
f 5/14/5 10/13/5 11/15/5 
f 5/14/5 11/15/5 6/16/5 
f 6/16/6 11/15/6 7/17/6 
f 6/16/6 7/17/6 2/18/6 
f 7/2/7 12/1/7 8/3/7 
f 8/3/7 12/1/7 9/4/7 
f 9/4/7 12/1/7 10/5/7 
f 10/5/7 12/1/7 11/6/7 
f 11/6/7 12/1/7 7/2/7 
# 20 faces

